<svg width="1014" height="1018" viewBox="0 0 1014 1018" fill="none" xmlns="http://www.w3.org/2000/svg">
<path d="M801 510C801 672.372 669.372 804 507 804C344.628 804 213 672.372 213 510V508C213 345.628 344.628 214 507 214C669.372 214 801 345.628 801 508V510Z" fill="#52B788"/>
<path opacity="0.5" d="M1013.5 511C1013.5 790.732 786.732 1017.5 507 1017.5C227.268 1017.5 0.5 790.732 0.5 511V507C0.5 227.268 227.268 0.5 507 0.5C786.732 0.5 1013.5 227.268 1013.5 507V511Z" stroke="#878D92"/>
<path d="M843.5 510C843.5 695.844 692.844 846.5 507 846.5C321.156 846.5 170.5 695.844 170.5 510V508C170.5 322.156 321.156 171.5 507 171.5C692.844 171.5 843.5 322.156 843.5 508V510Z" stroke="#878D92"/>
</svg>
