<svg width="400" height="240" viewBox="0 0 400 240" fill="none" xmlns="http://www.w3.org/2000/svg">
    <g clip-path="url(#clip0_960_7237)">
        <path d="M765.241 0H-365.241V240H765.241V0Z" fill="#F6FAFC" />
        <path
            d="M586.706 208.439V144.829L564.657 138.679V106.669L525.842 95.8395V127.849L519.759 126.179V76.4295L472.886 63.4595L472.785 107.419L466.802 109.089V75.8495L405.939 92.8295V120.999L380.403 128.119V157.819L336.145 170.159V178.419L316.843 183.879V130.409L273.488 142.499V161.739L267.956 163.279V129.669L232.127 139.659V147.509L211.772 153.189V165.539L195.186 170.159V143.209L152.061 155.239V168.039L110.71 179.579V146.469L57.6136 131.659V172.969L34.6232 166.559V147.479L13.8776 141.699V120.929L-11.5683 113.829V78.5195L-56.3766 66.0195V164.569L-63.2918 162.639V115.769L-91.163 107.989V150.639L-134.478 162.729V208.489L-140 210.029V115.299L-175.799 125.289V183.689L-196.134 189.359V221.099L-212.71 225.719V239.999H612.252V215.559L586.716 208.439H586.706Z"
            fill="#DCEBF2" />
        <path
            d="M209.982 103.32C209.982 101.51 211.446 100.05 213.26 100.05C215.074 100.05 216.537 101.51 216.537 103.32"
            stroke="#00486A" stroke-linecap="round" stroke-linejoin="round" />
        <path d="M209.982 112.21V103.32" stroke="#00486A" stroke-linecap="round" stroke-linejoin="round" />
        <path
            d="M219.373 103.32C219.373 101.51 220.836 100.05 222.65 100.05C224.464 100.05 225.927 101.51 225.927 103.32"
            stroke="#00486A" stroke-linecap="round" stroke-linejoin="round" />
        <path d="M219.373 112.21V103.32" stroke="#00486A" stroke-linecap="round" stroke-linejoin="round" />
        <path d="M257.466 95.5098V120.4" stroke="#00486A" stroke-linecap="round" stroke-linejoin="round" />
        <path d="M239.166 107.07L257.466 89.1099L275.766 107.07H239.166Z" fill="#44B0DF" />
        <path
            d="M265.323 215C265.323 215 279.053 196.06 288.915 194.02C295.76 192.61 295.459 199.48 293.635 206.01C293.635 206.01 314.762 172.41 331.709 171.76C343.896 171.29 332.992 192.83 325.275 200.38C325.275 200.38 345.67 185.35 350.3 193.38C353.697 199.27 343.405 207.94 343.405 207.94C343.405 207.94 359.6 204.94 366.676 215H265.323Z"
            fill="#189E68" />
        <path d="M353.056 174.11C354.91 177 347.905 185.83 344.207 181.9C339.917 177.34 350.32 169.84 353.056 174.11Z"
            fill="#189E68" />
        <path
            d="M367.688 179.46C369.222 182.69 360.533 189.89 357.476 185.88C354.209 181.59 365.935 175.75 367.688 179.46Z"
            fill="#189E68" />
        <path
            d="M123.632 215C123.632 215 115.164 195.39 97.7052 183.75C82.2813 173.47 78.3928 179.74 83.2735 189.43C86.9315 196.71 94.4881 203.98 94.4881 203.98C94.4881 203.98 81.9707 192.8 62.7384 190.79C43.5162 188.78 50.9124 201.95 65.9555 206.6C65.9555 206.6 52.4458 205.4 45.4404 215H123.632V215Z"
            stroke="#006A6A" stroke-linecap="round" stroke-linejoin="round" />
        <path
            d="M49.6604 168.46C50.833 166.49 56.4553 166.98 60.0633 169.32C65.0843 172.59 63.14 178.24 56.7861 176.27C51.2038 174.54 48.2774 170.8 49.6704 168.46H49.6604Z"
            stroke="#006A6A" stroke-linecap="round" stroke-linejoin="round" />
        <path
            d="M32.1515 201.73C32.6326 197.82 41.8027 199.07 41.5021 202.59C41.1313 206.92 31.6705 205.64 32.1515 201.73Z"
            stroke="#006A6A" stroke-linecap="round" stroke-linejoin="round" />
        <path
            d="M281.409 187.87C290.429 188.37 296.472 181.1 298.206 170.53C300.692 155.42 297.956 149.07 291.592 150.81C291.592 150.81 293.055 124.8 283.233 123.4C272.43 121.86 271.758 137.46 270.165 149.57C268.611 161.35 259.491 186.67 281.419 187.88L281.409 187.87Z"
            fill="#12545B" />
        <path d="M280.918 154.18V215" stroke="#006A6A" stroke-linecap="round" stroke-linejoin="round" />
        <path d="M273.963 156C277.441 159.26 280.908 165.55 280.908 173.56" stroke="#006A6A" stroke-linecap="round"
            stroke-linejoin="round" />
        <path d="M289.076 165.25C285.819 167.12 280.908 174.11 280.908 182.15" stroke="#006A6A" stroke-linecap="round"
            stroke-linejoin="round" />
        <path
            d="M319.302 153.24C324.022 154.8 315.163 173.55 308.178 169.99C304.78 168.26 308.348 163.83 311.445 160.37C314.923 156.49 316.366 152.26 319.302 153.24Z"
            fill="#12545B" />
        <path d="M274.594 129.83H189.367V215H274.594V129.83Z" fill="#FFBCA8" />
        <path
            d="M220.245 158.54C223.649 158.54 226.408 155.787 226.408 152.39C226.408 148.993 223.649 146.24 220.245 146.24C216.841 146.24 214.081 148.993 214.081 152.39C214.081 155.787 216.841 158.54 220.245 158.54Z"
            fill="#BA2C5F" />
        <path d="M247.434 161.66L221.667 186.24L211.595 176.62L195.921 191.57V208.46H268.039V181.33L247.434 161.66Z"
            fill="#BA2C5F" />
        <path
            d="M220.245 158.54C223.649 158.54 226.408 155.787 226.408 152.39C226.408 148.993 223.649 146.24 220.245 146.24C216.841 146.24 214.081 148.993 214.081 152.39C214.081 155.787 216.841 158.54 220.245 158.54Z"
            fill="#BA2C5F" />
        <path d="M247.434 161.66L221.667 186.24L211.595 176.62L195.921 191.57V208.46H268.039V181.33L247.434 161.66Z"
            fill="#BA2C5F" />
        <path d="M281.148 116.74H182.812V129.82H281.148V116.74Z" fill="#3274A4" />
        <path d="M136.922 129.83H182.812V116.75H136.922V129.83Z" fill="#00486A" />
        <path d="M235.688 109.16H189.486V116.74H235.688V109.16Z" fill="#44B0DF" />
        <path d="M155.271 116.74H189.486V109.16H155.271V116.74Z" fill="#3274A4" />
        <path d="M143.476 215H189.367V129.83H143.476V215Z" fill="#F78D8C" />
        <path d="M189.366 144.44H143.476V154.95H189.366V144.44Z" fill="#BA2C5F" />
        <path d="M189.366 167.16H143.476V177.67H189.366V167.16Z" fill="#BA2C5F" />
        <path d="M189.366 189.87H143.476V200.38H189.366V189.87Z" fill="#BA2C5F" />
        <path
            d="M156.214 215C156.214 215 141.411 187.01 125.967 181.88C114.562 178.09 113.741 193.6 126.93 204.35C126.93 204.35 105.693 196.27 91.0508 215H156.204H156.214Z"
            fill="#12545B" />
        <path
            d="M102.156 136.21C108.7 136.61 114.373 150.59 115.104 163.74C115.826 176.64 113.15 192.26 102.156 192.88C89.2975 193.6 89.3075 179.1 89.8086 172.04C90.2496 165.83 92.3041 156.02 93.0357 150.58C93.9978 143.36 95.0802 135.78 102.156 136.21Z"
            fill="#008A8A" />
        <path d="M101.995 160.8V215" stroke="#006A6A" stroke-linecap="round" stroke-linejoin="round" />
        <path d="M96.4131 171.39C98.2371 173.53 101.665 178.77 101.985 183.86" stroke="#006A6A" stroke-linecap="round"
            stroke-linejoin="round" />
        <path d="M108.319 162.72C106.495 164.75 102.256 169.55 101.995 175.72" stroke="#006A6A" stroke-linecap="round"
            stroke-linejoin="round" />
        <path
            d="M136.099 96.64C144.077 97.71 156.344 115.58 155.191 146.62C154.119 175.41 143.476 180.44 133.634 180.01C124.955 179.63 115.725 173.27 111.756 156.57C107.787 139.88 113.149 135.7 117.118 138.32C117.118 138.32 120.435 134.12 122.269 118.25C124.093 102.41 128.924 95.67 136.109 96.63L136.099 96.64Z"
            fill="#50C193" />
        <path d="M134.816 133.67V215" stroke="#006A6A" stroke-linecap="round" stroke-linejoin="round" />
        <path d="M126.448 135.16C128.914 138.37 134.817 148.11 134.817 157.96" stroke="#006A6A" stroke-linecap="round"
            stroke-linejoin="round" />
        <path d="M145.159 146.13C142.534 148.06 135.719 156.51 134.807 163.73" stroke="#006A6A" stroke-linecap="round"
            stroke-linejoin="round" />
        <path d="M124.675 157.1C126.87 159.35 134.065 166.92 134.807 173.47" stroke="#006A6A" stroke-linecap="round"
            stroke-linejoin="round" />
        <path
            d="M148.406 87.4901C152.906 86.1301 157.897 97.4401 152.586 99.5301C147.274 101.62 144.839 88.5701 148.406 87.4901Z"
            fill="#50C193" />
        <path d="M257.467 89.1099V107.07" stroke="#3274A4" stroke-linecap="round" stroke-linejoin="round" />
        <path d="M248.517 107.07L257.466 89.1099" stroke="#3274A4" stroke-linecap="round" stroke-linejoin="round" />
        <path d="M239.567 107.07L257.467 89.1099" stroke="#3274A4" stroke-linecap="round" stroke-linejoin="round" />
        <path d="M266.416 107.07L257.467 89.1099" stroke="#3274A4" stroke-linecap="round" stroke-linejoin="round" />
        <path d="M275.366 107.07L257.467 89.1099" stroke="#3274A4" stroke-linecap="round" stroke-linejoin="round" />
        <path
            d="M703.285 240H-261.223C-130.455 233.07 -101.452 215 20.8067 215H359.23C491.36 215 525.736 234.96 703.285 240Z"
            fill="#006A6A" />
    </g>
    <defs>
        <clipPath id="clip0_960_7237">
            <rect width="400" height="240" fill="white" />
        </clipPath>
    </defs>
</svg>
